<svg width="29" height="29" viewBox="0 0 29 29" fill="none" xmlns="http://www.w3.org/2000/svg">
<path d="M27.9714 12.141C27.4648 8.44907 25.5124 5.10957 22.5437 2.85716C19.5749 0.604745 15.8329 -0.376074 12.141 0.130469C8.44907 0.637011 5.10957 2.58942 2.85716 5.55819C0.604745 8.52697 -0.376074 12.2689 0.130468 15.9608C0.547793 19.0166 1.95202 21.8523 4.12944 24.0364C6.30686 26.2205 9.13824 27.6335 12.1927 28.0602C12.8177 28.1421 13.4473 28.1832 14.0777 28.1834C16.6244 28.1876 19.1234 27.4927 21.3023 26.1743C21.4552 26.0822 21.5885 25.9608 21.6945 25.8172C21.8006 25.6736 21.8773 25.5105 21.9203 25.3372C21.9633 25.1639 21.9717 24.9839 21.9452 24.8074C21.9186 24.6308 21.8575 24.4612 21.7654 24.3083C21.6733 24.1554 21.5519 24.0221 21.4083 23.9161C21.2647 23.81 21.1016 23.7333 20.9283 23.6903C20.5784 23.6035 20.2083 23.6592 19.8994 23.8452C18.3485 24.7761 16.5972 25.3221 14.7921 25.4375C12.9869 25.5529 11.1804 25.2343 9.52355 24.5084C7.86675 23.7825 6.40786 22.6704 5.26892 21.2652C4.12999 19.8599 3.34412 18.2024 2.97706 16.4312C2.61001 14.66 2.67243 12.8266 3.15912 11.0845C3.64581 9.34232 4.54261 7.74206 5.77449 6.41754C7.00638 5.09302 8.53754 4.08275 10.2399 3.47125C11.9422 2.85975 13.7662 2.66479 15.5594 2.90269C17.2249 3.12414 18.8203 3.7133 20.23 4.62749C21.6397 5.54169 22.8284 6.75802 23.71 8.18836C24.5915 9.6187 25.1439 11.2272 25.327 12.8974C25.5101 14.5676 25.3194 16.2576 24.7687 17.8449C24.6258 18.2266 24.3676 18.5544 24.03 18.7827C23.6924 19.0111 23.2921 19.1286 22.8846 19.1191C22.3476 19.1184 21.8329 18.9048 21.4532 18.5251C21.0735 18.1454 20.8598 17.6306 20.8591 17.0937V8.69725C20.8591 8.33672 20.7159 7.99096 20.461 7.73603C20.206 7.4811 19.8603 7.33788 19.4998 7.33788C19.1392 7.33788 18.7935 7.4811 18.5385 7.73603C18.2836 7.99096 18.1404 8.33672 18.1404 8.69725V8.70994C17.1098 7.93214 15.8791 7.46395 14.5922 7.36017C13.3052 7.25638 12.0153 7.52129 10.8735 8.12389C9.73162 8.72649 8.78501 9.64185 8.14444 10.7629C7.50387 11.8839 7.19583 13.1641 7.25638 14.4538C7.31693 15.7435 7.74357 16.9893 8.48635 18.0453C9.22913 19.1014 10.2573 19.924 11.4506 20.417C12.6439 20.91 13.953 21.0528 15.2245 20.8289C16.4961 20.605 17.6775 20.0236 18.6307 19.1527C19.0157 19.9548 19.6191 20.6321 20.3715 21.107C21.1239 21.582 21.9949 21.8353 22.8846 21.8379C23.8572 21.8473 24.8086 21.5535 25.6067 20.9974C26.4048 20.4414 27.0098 19.6506 27.3379 18.7349C28.0705 16.6186 28.2877 14.3581 27.9714 12.141ZM14.0623 18.2129C13.2557 18.2129 12.4672 17.9737 11.7966 17.5256C11.1259 17.0775 10.6032 16.4406 10.2946 15.6954C9.98589 14.9502 9.90513 14.1302 10.0625 13.3391C10.2198 12.5481 10.6082 11.8214 11.1786 11.2511C11.7489 10.6807 12.4756 10.2923 13.2666 10.135C14.0577 9.97763 14.8777 10.0584 15.6229 10.3671C16.3681 10.6757 17.005 11.1984 17.4531 11.8691C17.9012 12.5397 18.1404 13.3282 18.1404 14.1348C18.1392 15.216 17.7091 16.2526 16.9446 17.0171C16.1801 17.7816 15.1435 18.2117 14.0623 18.2129Z" fill="#C7BDAE"/>
</svg>
