<svg width="29" height="27" viewBox="0 0 29 27" fill="none" xmlns="http://www.w3.org/2000/svg">
<path d="M27.0938 23.9219C20.9508 23.9219 15.9531 19.2466 15.9531 13.5V5.00062L19.7693 8.57062C20.0418 8.82556 20.4115 8.96878 20.7969 8.96879C21.1822 8.96879 21.5519 8.82558 21.8244 8.57065C22.0969 8.31572 22.25 7.96995 22.25 7.60942C22.25 7.24889 22.0969 6.90312 21.8244 6.64818L15.5275 0.757552C15.3926 0.631315 15.2324 0.531177 15.0561 0.462858C14.8798 0.394539 14.6908 0.359375 14.5 0.359375C14.3092 0.359375 14.1202 0.394539 13.9439 0.462858C13.7676 0.531177 13.6074 0.631315 13.4725 0.757552L7.17558 6.64818C6.90307 6.90312 6.74998 7.24889 6.74998 7.60942C6.74999 7.96995 6.90309 8.31572 7.17561 8.57065C7.44813 8.82558 7.81775 8.96879 8.20315 8.96879C8.58854 8.96878 8.95815 8.82556 9.23067 8.57062L13.0469 5.00062V13.5C13.0469 19.2466 8.04921 23.9219 1.90625 23.9219C1.52086 23.9219 1.15125 24.0651 0.878736 24.32C0.606222 24.575 0.453125 24.9207 0.453125 25.2813C0.453125 25.6418 0.606222 25.9875 0.878736 26.2425C1.15125 26.4974 1.52086 26.6406 1.90625 26.6406C3.75166 26.6453 5.57974 26.3076 7.28468 25.647C8.98963 24.9863 10.5376 24.0159 11.8389 22.7918C12.9208 21.7821 13.8196 20.6141 14.5 19.334C15.6657 21.5266 17.4617 23.3718 19.6863 24.6624C21.9109 25.9531 24.4761 26.6381 27.0938 26.6406C27.4791 26.6406 27.8487 26.4974 28.1213 26.2425C28.3938 25.9875 28.5469 25.6418 28.5469 25.2813C28.5469 24.9207 28.3938 24.575 28.1213 24.32C27.8487 24.0651 27.4791 23.9219 27.0938 23.9219Z" fill="#C7BDAE"/>
</svg>
